<svg style="position: absolute; width: 0; height: 0; overflow: hidden;" version="1.1" xmlns="http://www.w3.org/2000/svg" xmlns:xlink="http://www.w3.org/1999/xlink">
<defs>
<symbol id="icon-play" viewBox="0 0 24 24">
<title>play</title>
<path d="M12 2C6.48 2 2 6.48 2 12s4.48 10 10 10 10-4.48 10-10S17.52 2 12 2zm-2 14.5v-9l6 4.5-6 4.5z"></path>
</symbol>
<symbol id="icon-sidebar" viewBox="0 0 24 24">
<title>sidebar</title>
<path d="M3 13h2v-2H3v2zm0 4h2v-2H3v2zm0-8h2V7H3v2zm4 4h14v-2H7v2zm0 4h14v-2H7v2zM7 7v2h14V7H7z"></path>
<!-- <path d="M0 0h24v24H0z"></path> -->
</symbol>
<symbol id="icon-musicplay" viewBox="0 0 24 24">
<title>musicplay</title>
<path d="M20 2H8c-1.1 0-2 .9-2 2v12c0 1.1.9 2 2 2h12c1.1 0 2-.9 2-2V4c0-1.1-.9-2-2-2zm-2 5h-3v5.5c0 1.38-1.12 2.5-2.5 2.5S10 13.88 10 12.5s1.12-2.5 2.5-2.5c.57 0 1.08.19 1.5.51V5h4v2zM4 6H2v14c0 1.1.9 2 2 2h14v-2H4V6z"></path>
</symbol>
<symbol id="icon-assessment" viewBox="0 0 24 24">
<title>assessment</title>
<path d="M19 3H5c-1.1 0-2 .9-2 2v14c0 1.1.9 2 2 2h14c1.1 0 2-.9 2-2V5c0-1.1-.9-2-2-2zM9 17H7v-7h2v7zm4 0h-2V7h2v10zm4 0h-2v-4h2v4z"></path>
<!-- <path d="M0 0h24v24H0z"></path> -->
</symbol>
<symbol id="icon-add" viewBox="0 0 24 24">
<title>add</title>
<path d="M19 13h-6v6h-2v-6H5v-2h6V5h2v6h6v2z"></path>
</symbol>
<symbol id="icon-pause" viewBox="0 0 24 24">
<title>pause</title>
<path d="M6 19h4V5H6v14zm8-14v14h4V5h-4z"></path>
</symbol>
<symbol id="icon-close" viewBox="0 0 24 24">
<title>close</title>
<path d="M19 6.41L17.59 5 12 10.59 6.41 5 5 6.41 10.59 12 5 17.59 6.41 19 12 13.41 17.59 19 19 17.59 13.41 12z"></path>
</symbol>
<symbol id="icon-play2" viewBox="0 0 24 24">
<title>play</title>
<path d="M10 16.5l6-4.5-6-4.5v9zM12 2C6.48 2 2 6.48 2 12s4.48 10 10 10 10-4.48 10-10S17.52 2 12 2zm0 18c-4.41 0-8-3.59-8-8s3.59-8 8-8 8 3.59 8 8-3.59 8-8 8z"></path>
</symbol>
<symbol id="icon-check" viewBox="0 0 24 24">
<title>check</title>
<path d="M16.59 7.58L10 14.17l-3.59-3.58L5 12l5 5 8-8zM12 2C6.48 2 2 6.48 2 12s4.48 10 10 10 10-4.48 10-10S17.52 2 12 2zm0 18c-4.42 0-8-3.58-8-8s3.58-8 8-8 8 3.58 8 8-3.58 8-8 8z"></path>
</symbol>
</defs>
</svg>
